<svg width="311" height="345" viewBox="0 0 311 345" fill="none" xmlns="http://www.w3.org/2000/svg">
<path d="M285.554 275.499C287.189 275.499 288.434 274.83 289.288 273.492C290.18 272.117 290.626 270.241 290.626 267.863V250.249C290.626 243.004 288.917 239.381 285.498 239.381C283.9 239.381 282.655 240.031 281.764 241.331C280.872 242.632 280.426 244.471 280.426 246.849V264.964C280.426 271.987 282.135 275.499 285.554 275.499ZM285.108 282.187C276.599 282.187 270.375 280.255 266.436 276.391C262.497 272.526 260.527 266.358 260.527 257.886C260.527 249.488 262.515 243.171 266.491 238.935C270.467 234.661 276.933 232.525 285.888 232.525C294.621 232.525 300.919 234.569 304.783 238.656C308.685 242.706 310.636 248.856 310.636 257.105C310.636 265.652 308.574 271.969 304.449 276.056C300.362 280.144 293.915 282.187 285.108 282.187Z" fill="#34599F"/>
<path d="M252.545 281.017L250.371 273.827C250.074 274.347 249.721 274.867 249.312 275.387C248.94 275.907 248.327 276.576 247.473 277.394C246.618 278.174 245.708 278.862 244.741 279.456C243.775 280.051 242.568 280.571 241.119 281.017C239.669 281.463 238.146 281.686 236.548 281.686C230.417 281.686 225.921 279.586 223.059 275.387C220.198 271.188 218.768 265.354 218.768 257.886C218.768 253.204 219.436 249.042 220.774 245.4C222.112 241.722 224.211 238.767 227.073 236.538C229.934 234.308 233.39 233.194 237.44 233.194C239.855 233.194 242.01 233.454 243.905 233.974C245.801 234.494 247.435 235.126 248.81 235.869V218.98L242.679 216.918V210.787L262.41 208H266.758V281.017H252.545ZM244.686 270.761C245.355 270.761 246.042 270.65 246.748 270.427C247.454 270.166 248.142 269.813 248.81 269.368V241.331C247.658 241.071 246.599 240.941 245.633 240.941C240.691 240.978 238.202 244.787 238.164 252.367V260.171C238.164 263.664 238.778 266.302 240.004 268.086C241.23 269.869 242.791 270.761 244.686 270.761Z" fill="#34599F"/>
<path d="M206.726 276.056L206.169 276.669C205.797 277.115 205.221 277.635 204.441 278.23C203.698 278.825 202.825 279.419 201.821 280.014C200.855 280.608 199.666 281.11 198.254 281.519C196.842 281.964 195.393 282.187 193.906 282.187C183.874 282.187 178.857 277.227 178.857 267.305C178.857 265.373 179.21 263.608 179.916 262.01C180.622 260.375 181.533 259 182.647 257.886C183.762 256.771 185.1 255.786 186.66 254.931C188.221 254.04 189.782 253.352 191.342 252.869C192.94 252.349 194.612 251.922 196.359 251.587C198.105 251.253 199.666 251.03 201.041 250.918C202.416 250.807 203.735 250.751 204.998 250.751V249.748C204.998 247.481 204.385 245.883 203.159 244.954C201.97 244.025 200.038 243.561 197.362 243.561C195.058 243.561 192.662 243.84 190.172 244.397C187.682 244.917 185.732 245.549 184.319 246.292L180.752 238.712C183.279 237.077 186.568 235.646 190.618 234.42C194.668 233.156 198.793 232.525 202.992 232.525C206.708 232.525 209.773 232.896 212.189 233.64C214.604 234.346 216.555 235.572 218.041 237.318C219.565 239.028 220.642 241.22 221.274 243.895C221.906 246.534 222.221 249.896 222.221 253.984V276.669L223.782 281.017H208.51L206.726 276.056ZM202.323 272.377C202.806 272.377 203.252 272.285 203.661 272.099C204.107 271.876 204.441 271.671 204.664 271.486C204.887 271.263 204.998 271.151 204.998 271.151V257.774C202.732 257.774 200.929 258.406 199.592 259.669C198.254 260.895 197.585 262.809 197.585 265.41C197.585 270.055 199.164 272.377 202.323 272.377Z" fill="#34599F"/>
<path d="M183.033 276.391L182.531 277.004C182.197 277.375 181.602 277.858 180.748 278.453C179.93 279.01 178.927 279.586 177.738 280.181C176.586 280.738 175.025 281.203 173.056 281.574C171.124 281.983 169.043 282.187 166.813 282.187C159.27 282.187 153.492 279.976 149.479 275.554C145.503 271.133 143.515 265.28 143.515 257.997C143.515 254.058 144.128 250.472 145.354 247.24C146.58 244.007 148.253 241.331 150.371 239.213C152.526 237.058 155.034 235.405 157.895 234.253C160.794 233.064 163.915 232.469 167.259 232.469C173.725 232.469 178.741 234.011 182.308 237.095C183.089 237.876 183.479 238.266 183.479 238.266L182.643 251.364L174.728 251.42L171.551 242.892C171.254 242.818 170.845 242.781 170.325 242.781C166.943 242.781 164.602 243.951 163.302 246.292C162.038 248.596 161.407 252.609 161.407 258.331C161.407 260.821 161.611 262.958 162.02 264.741C162.429 266.488 162.893 267.807 163.413 268.699C163.933 269.553 164.621 270.222 165.476 270.705C166.367 271.188 167.092 271.467 167.649 271.541C168.207 271.616 168.894 271.653 169.712 271.653C171.57 271.653 173.465 271.43 175.397 270.984C177.366 270.538 178.983 269.813 180.246 268.81L183.033 276.391Z" fill="#34599F"/>
<path d="M134.969 279.424H116.965V243.362L113.621 241.299V235.001L125.605 232.047H130.12L131.736 245.313C133.259 236.209 138.146 231.657 146.395 231.657C147.324 231.657 148.29 231.824 149.293 232.158L147.398 252.001C146.618 251.295 144.909 250.942 142.27 250.942C138.48 250.942 136.046 251.945 134.969 253.952V279.424Z" fill="#34599F"/>
<path d="M97.1682 249.015C97.1682 244.296 96.9266 240.952 96.4436 238.982C95.9605 237.013 95.0687 236.028 93.7681 236.028C92.6534 236.028 91.743 236.233 91.037 236.641C90.331 237.013 89.8107 237.626 89.4763 238.481C89.1419 239.298 88.9189 240.153 88.8075 241.045C88.7331 241.899 88.696 242.996 88.696 244.333V249.015H97.1682ZM92.7091 279.002C88.5473 279.002 84.9244 278.371 81.8402 277.107C78.7932 275.844 76.3779 274.079 74.5943 271.812C72.8478 269.545 71.5658 267 70.7483 264.176C69.9308 261.315 69.5221 258.138 69.5221 254.645C69.5221 246.321 71.6401 240.023 75.8762 235.75C80.1123 231.476 86.0391 229.34 93.6567 229.34C100.977 229.34 106.216 231.068 109.375 234.523C112.533 237.942 114.113 243.46 114.113 251.078V257.264H88.6402V258.323C88.6402 260.516 88.8632 262.318 89.3091 263.73C89.7922 265.142 90.4796 266.183 91.3714 266.851C92.2632 267.52 93.1736 267.966 94.1026 268.189C95.0315 268.412 96.1649 268.524 97.5026 268.524C98.8031 268.524 100.197 268.356 101.683 268.022C103.206 267.687 104.73 267.167 106.253 266.461C107.814 265.755 109.115 264.919 110.155 263.953L113.444 269.583C112.069 271.812 110.044 273.689 107.368 275.212C104.73 276.698 102.185 277.702 99.7321 278.222C97.2796 278.742 94.9386 279.002 92.7091 279.002Z" fill="#34599F"/>
<path d="M16.7771 281.017H0L5.18364 215.692H31.3248L36.2297 237.597L38.4592 248.689L40.5773 237.653L44.9249 215.692H68.2233L73.0168 281.017H55.6823L52.8396 242.613L52.1708 228.456L43.6429 274.496H29.0953L18.8395 228.456L18.505 242.613L16.7771 281.017Z" fill="#34599F"/>
<path d="M259.609 337.607C261.244 337.607 262.489 336.938 263.344 335.6C264.235 334.225 264.681 332.349 264.681 329.971V312.358C264.681 305.112 262.972 301.489 259.553 301.489C257.956 301.489 256.711 302.139 255.819 303.439C254.927 304.74 254.481 306.579 254.481 308.957V327.072C254.481 334.095 256.191 337.607 259.609 337.607ZM259.163 344.295C250.654 344.295 244.43 342.363 240.491 338.499C236.552 334.634 234.583 328.466 234.583 319.994C234.583 311.596 236.571 305.279 240.547 301.043C244.523 296.769 250.988 294.633 259.944 294.633C268.676 294.633 274.974 296.677 278.839 300.764C282.74 304.814 284.691 310.964 284.691 319.213C284.691 327.76 282.629 334.077 278.504 338.164C274.417 342.252 267.97 344.295 259.163 344.295Z" fill="#34599F"/>
<path d="M224.773 344.295C219.756 344.295 216.245 342.79 214.238 339.781C212.269 336.771 211.284 331.68 211.284 324.508V305.557H207.438V297.81L214.015 295.748L219.701 282.761H229.51V295.748H238.652V305.557H229.343V326.292C229.343 329.265 229.771 331.234 230.625 332.2C231.48 333.166 232.799 333.649 234.583 333.649C235.363 333.649 236.069 333.557 236.701 333.371C237.332 333.185 237.853 332.925 238.261 332.59V340.171C237.704 340.728 236.979 341.286 236.088 341.843C235.196 342.363 233.709 342.902 231.629 343.459C229.585 344.017 227.3 344.295 224.773 344.295Z" fill="#34599F"/>
<path d="M193.884 338.164L193.327 338.777C192.955 339.223 192.379 339.743 191.599 340.338C190.855 340.933 189.982 341.527 188.979 342.122C188.013 342.716 186.824 343.218 185.412 343.627C184 344.072 182.551 344.295 181.064 344.295C171.031 344.295 166.015 339.335 166.015 329.413C166.015 327.481 166.368 325.716 167.074 324.118C167.78 322.483 168.69 321.108 169.805 319.994C170.92 318.879 172.258 317.894 173.818 317.039C175.379 316.148 176.94 315.46 178.5 314.977C180.098 314.457 181.77 314.03 183.517 313.695C185.263 313.361 186.824 313.138 188.199 313.026C189.574 312.915 190.893 312.859 192.156 312.859V311.856C192.156 309.589 191.543 307.991 190.317 307.062C189.128 306.133 187.195 305.669 184.52 305.669C182.216 305.669 179.819 305.948 177.33 306.505C174.84 307.025 172.889 307.657 171.477 308.4L167.91 300.82C170.437 299.185 173.725 297.754 177.776 296.528C181.826 295.265 185.951 294.633 190.149 294.633C193.865 294.633 196.931 295.004 199.346 295.748C201.762 296.454 203.712 297.68 205.199 299.426C206.722 301.136 207.8 303.328 208.432 306.003C209.063 308.642 209.379 312.004 209.379 316.092V338.777L210.94 343.125H195.668L193.884 338.164ZM189.481 334.486C189.964 334.486 190.41 334.393 190.818 334.207C191.264 333.984 191.599 333.779 191.822 333.594C192.045 333.371 192.156 333.259 192.156 333.259V319.882C189.889 319.882 188.087 320.514 186.749 321.777C185.412 323.003 184.743 324.917 184.743 327.518C184.743 332.163 186.322 334.486 189.481 334.486Z" fill="#34599F"/>
<path d="M157.437 343.125H139.434V307.062L136.089 305V298.702L148.073 295.748H152.588L154.204 309.013C155.728 299.909 160.614 295.357 168.863 295.357C169.792 295.357 170.759 295.525 171.762 295.859L169.867 315.702C169.086 314.996 167.377 314.643 164.739 314.643C160.949 314.643 158.515 315.646 157.437 317.653V343.125Z" fill="#34599F"/>
<path d="M121.588 338.164L121.03 338.777C120.659 339.223 120.083 339.743 119.303 340.338C118.559 340.933 117.686 341.527 116.683 342.122C115.717 342.716 114.528 343.218 113.116 343.627C111.704 344.072 110.254 344.295 108.768 344.295C98.7352 344.295 93.7188 339.335 93.7188 329.413C93.7188 327.481 94.0718 325.716 94.7778 324.118C95.4838 322.483 96.3942 321.108 97.5089 319.994C98.6237 318.879 99.9614 317.894 101.522 317.039C103.083 316.148 104.643 315.46 106.204 314.977C107.802 314.457 109.474 314.03 111.22 313.695C112.967 313.361 114.528 313.138 115.902 313.026C117.277 312.915 118.596 312.859 119.86 312.859V311.856C119.86 309.589 119.247 307.991 118.021 307.062C116.831 306.133 114.899 305.669 112.224 305.669C109.92 305.669 107.523 305.948 105.034 306.505C102.544 307.025 100.593 307.657 99.1811 308.4L95.6138 300.82C98.1406 299.185 101.429 297.754 105.479 296.528C109.53 295.265 113.654 294.633 117.853 294.633C121.569 294.633 124.635 295.004 127.05 295.748C129.465 296.454 131.416 297.68 132.903 299.426C134.426 301.136 135.504 303.328 136.135 306.003C136.767 308.642 137.083 312.004 137.083 316.092V338.777L138.644 343.125H123.371L121.588 338.164ZM117.184 334.486C117.668 334.486 118.113 334.393 118.522 334.207C118.968 333.984 119.303 333.779 119.525 333.594C119.748 333.371 119.86 333.259 119.86 333.259V319.882C117.593 319.882 115.791 320.514 114.453 321.777C113.116 323.003 112.447 324.917 112.447 327.518C112.447 332.163 114.026 334.486 117.184 334.486Z" fill="#34599F"/>
<path d="M78.4792 332.734C81.1174 332.734 83.0497 331.991 84.2759 330.504C85.5021 329.018 86.1153 327.253 86.1153 325.209V321.307C86.1153 318.892 85.3349 317.183 83.7743 316.18C82.2136 315.139 80.4486 314.619 78.4792 314.619H74.1316V332.734H78.4792ZM85.3349 295.055C85.3349 292.825 84.7218 291.283 83.4956 290.429C82.2693 289.537 80.5043 289.091 78.2005 289.091H74.1316V305.199H78.6464C80.8016 305.199 82.4551 304.363 83.607 302.691C84.759 300.982 85.3349 298.901 85.3349 296.448V295.055ZM82.2693 344.16C79.371 344.16 75.6179 344.086 71.0103 343.937C66.4026 343.788 63.0955 343.696 61.0889 343.658H55.738V278.333H65.3807C67.7217 278.333 70.3971 278.259 73.407 278.11C76.4168 277.925 78.5906 277.832 79.9283 277.832C84.2759 277.832 87.936 278.185 90.9087 278.891C93.9186 279.597 96.2782 280.656 97.9875 282.068C99.6968 283.48 100.904 285.115 101.61 286.973C102.354 288.831 102.725 291.042 102.725 293.606C102.725 297.544 101.815 300.926 99.994 303.75C98.1733 306.574 95.535 308.339 92.0792 309.045C100.849 309.825 105.233 314.972 105.233 324.485C105.233 327.346 104.806 329.947 103.951 332.288C103.097 334.592 101.778 336.654 99.994 338.475C98.2476 340.258 95.8694 341.652 92.8596 342.655C89.8497 343.658 86.3196 344.16 82.2693 344.16Z" fill="#34599F"/>
<path d="M65.3158 0.00102074C63.106 -0.0334202 60.9711 0.804884 59.3702 2.33562C57.8401 3.89085 56.982 5.98947 56.982 8.17627C56.982 10.3631 57.8401 12.4617 59.3702 14.0169L115.965 70.8781C116.707 71.6304 117.593 72.2248 118.569 72.6259C119.545 73.027 120.591 73.2266 121.646 73.2127C123.738 73.2127 125.995 72.4816 127.591 70.8781C129.127 69.3261 129.99 67.2262 129.99 65.0375C129.99 62.8487 129.127 60.7489 127.591 59.1968L70.9967 2.33562C70.2542 1.58332 69.3686 0.988908 68.3926 0.587816C67.4166 0.186724 66.3702 -0.012839 65.3158 0.00102074ZM245.684 0.00102074C244.63 -0.012839 243.583 0.186724 242.607 0.587816C241.631 0.988908 240.746 1.58332 240.003 2.33562L183.409 59.1968C181.873 60.7489 181.01 62.8487 181.01 65.0375C181.01 67.2262 181.873 69.3261 183.409 70.8781C185.005 72.4816 187.262 73.2127 189.354 73.2127C190.409 73.2266 191.455 73.027 192.431 72.6259C193.407 72.2248 194.293 71.6304 195.035 70.8781L251.63 14.0169C253.16 12.4617 254.018 10.3631 254.018 8.17627C254.018 5.98947 253.16 3.89085 251.63 2.33562C250.029 0.804884 247.894 -0.0334202 245.684 0.00102074ZM56.2692 57.3773C51.7129 57.3773 48 61.1077 48 65.6855V90.61C48 95.1878 51.7129 98.9182 56.2692 98.9182H64.5385V107.226C64.5385 107.966 81.0769 173.692 81.0769 173.692C83.5329 178.103 85.6002 182 89.3462 182H221.654C226.21 182 227.988 178.361 229.923 173.692C229.923 173.692 246.462 107.966 246.462 107.226V98.9182H254.731C259.287 98.9182 263 95.1878 263 90.61V65.6855C263 61.1077 259.287 57.3773 254.731 57.3773H220.877L199.691 78.6712C196.466 81.9114 192.1 83.8555 187.543 83.8555C182.995 83.8555 178.885 81.9197 175.652 78.6712C172.885 75.9323 171.144 72.3179 170.722 68.4383C170.3 64.5588 171.224 60.6519 173.337 57.3773H137.672C139.784 60.6528 140.706 64.5603 140.283 68.4398C139.859 72.3194 138.116 75.9333 135.348 78.6712C132.123 81.9114 128.005 83.8555 123.457 83.8555C118.886 83.8009 114.522 81.9381 111.309 78.6712L90.1235 57.3773H56.2692ZM122.423 98.9182C126.979 98.9182 130.692 102.649 130.692 107.226V157.075C130.692 161.653 126.979 165.384 122.423 165.384C117.867 165.384 114.154 161.653 114.154 157.075V107.226C114.154 102.649 117.867 98.9182 122.423 98.9182ZM155.5 98.9182C160.056 98.9182 163.769 102.649 163.769 107.226V157.075C163.769 161.653 160.056 165.384 155.5 165.384C150.944 165.384 147.231 161.653 147.231 157.075V107.226C147.231 102.649 150.944 98.9182 155.5 98.9182ZM188.577 98.9182C193.133 98.9182 196.846 102.649 196.846 107.226V157.075C196.846 161.653 193.133 165.384 188.577 165.384C184.021 165.384 180.308 161.653 180.308 157.075V107.226C180.308 102.649 184.021 98.9182 188.577 98.9182Z" fill="#C43C24"/>
<rect x="86" y="94" width="135" height="80" fill="#C43C24"/>
<rect x="48" y="57" width="215" height="37" rx="9" fill="#C43C24"/>
<path d="M102.679 183.856H82L88.3893 54.144H120.611L126.656 97.6396L129.405 119.664L132.015 97.7502L137.374 54.144H166.092L172 183.856H150.634L147.13 107.6L146.305 79.4887L135.794 170.907H117.863L105.221 79.4887L104.809 107.6L102.679 183.856Z" fill="white"/>
<path d="M198.189 162.916C201.227 162.916 203.453 161.415 204.865 158.412C206.277 155.409 206.983 151.843 206.983 147.714V139.832C206.983 134.952 206.084 131.499 204.287 129.472C202.49 127.37 200.457 126.319 198.189 126.319H193.182L193.182 162.916H198.189ZM206.084 86.795C206.084 82.2908 205.378 79.1754 203.966 77.4487C202.554 75.6471 200.521 74.7462 197.868 74.7462H193.182V107.289H198.382C200.864 107.289 202.768 105.6 204.095 102.222C205.421 98.7686 206.084 94.5647 206.084 89.6101V86.795ZM202.554 186C199.216 186 194.894 185.85 189.588 185.55C184.282 185.249 180.473 185.062 178.162 184.987H172L172 53.0134H183.105C185.801 53.0134 188.882 52.8633 192.348 52.563C195.814 52.1877 198.318 52 199.858 52C204.865 52 209.08 52.7132 212.503 54.1395C215.97 55.5658 218.687 57.7053 220.655 60.558C222.624 63.4106 224.015 66.7137 224.828 70.4672C225.684 74.2207 226.111 78.6874 226.111 83.8672C226.111 91.8246 225.063 98.656 222.966 104.361C220.869 110.067 217.831 113.632 213.851 115.059C223.95 116.635 229 127.032 229 146.25C229 152.031 228.508 157.286 227.524 162.015C226.539 166.669 225.02 170.836 222.966 174.514C220.955 178.118 218.216 180.933 214.75 182.96C211.284 184.987 207.218 186 202.554 186Z" fill="white"/>
</svg>
