<svg width="546" height="186" viewBox="0 0 546 186" fill="none" xmlns="http://www.w3.org/2000/svg">
<path d="M520.554 106.499C522.189 106.499 523.434 105.83 524.288 104.492C525.18 103.117 525.626 101.241 525.626 98.8627V81.2494C525.626 74.0035 523.917 70.3805 520.498 70.3805C518.9 70.3805 517.655 71.0308 516.764 72.3314C515.872 73.6319 515.426 75.4713 515.426 77.8494V95.9643C515.426 102.987 517.135 106.499 520.554 106.499ZM520.108 113.187C511.599 113.187 505.375 111.255 501.436 107.391C497.497 103.526 495.527 97.3577 495.527 88.8856C495.527 80.4877 497.515 74.1707 501.491 69.9346C505.467 65.6614 511.933 63.5247 520.888 63.5247C529.621 63.5247 535.919 65.5685 539.783 69.6559C543.685 73.7062 545.636 79.856 545.636 88.1052C545.636 96.6517 543.574 102.969 539.449 107.056C535.362 111.144 528.915 113.187 520.108 113.187Z" fill="#34599F"/>
<path d="M487.545 112.017L485.371 104.827C485.074 105.347 484.721 105.867 484.312 106.387C483.94 106.907 483.327 107.576 482.473 108.394C481.618 109.174 480.708 109.862 479.741 110.456C478.775 111.051 477.568 111.571 476.119 112.017C474.669 112.463 473.146 112.686 471.548 112.686C465.417 112.686 460.921 110.586 458.059 106.387C455.198 102.188 453.768 96.3544 453.768 88.8855C453.768 84.2035 454.436 80.0418 455.774 76.4002C457.112 72.7215 459.211 69.7674 462.073 67.5379C464.934 65.3084 468.39 64.1936 472.44 64.1936C474.855 64.1936 477.01 64.4537 478.905 64.9739C480.801 65.4941 482.435 66.1258 483.81 66.869V49.9804L477.679 47.9181V41.7869L497.41 39H501.758V112.017H487.545ZM479.686 101.761C480.355 101.761 481.042 101.65 481.748 101.427C482.454 101.166 483.142 100.813 483.81 100.368V72.3313C482.658 72.0712 481.599 71.9412 480.633 71.9412C475.691 71.9783 473.202 75.7871 473.164 83.3675V91.1708C473.164 94.6637 473.778 97.302 475.004 99.0856C476.23 100.869 477.791 101.761 479.686 101.761Z" fill="#34599F"/>
<path d="M441.726 107.056L441.169 107.669C440.797 108.115 440.221 108.635 439.441 109.23C438.698 109.824 437.825 110.419 436.821 111.014C435.855 111.608 434.666 112.11 433.254 112.518C431.842 112.964 430.393 113.187 428.906 113.187C418.874 113.187 413.857 108.227 413.857 98.3053C413.857 96.373 414.21 94.608 414.916 93.0102C415.622 91.3752 416.533 90.0003 417.647 88.8856C418.762 87.7708 420.1 86.7861 421.66 85.9314C423.221 85.0396 424.782 84.3522 426.342 83.8691C427.94 83.3489 429.612 82.9216 431.359 82.5872C433.105 82.2527 434.666 82.0298 436.041 81.9183C437.416 81.8068 438.735 81.7511 439.998 81.7511V80.7478C439.998 78.4811 439.385 76.8833 438.159 75.9543C436.97 75.0254 435.038 74.5609 432.362 74.5609C430.058 74.5609 427.662 74.8396 425.172 75.3969C422.682 75.9172 420.732 76.5489 419.319 77.292L415.752 69.7117C418.279 68.0767 421.568 66.6461 425.618 65.4198C429.668 64.1564 433.793 63.5247 437.992 63.5247C441.708 63.5247 444.773 63.8963 447.189 64.6395C449.604 65.3455 451.555 66.5718 453.041 68.3182C454.565 70.0275 455.642 72.2199 456.274 74.8953C456.906 77.5336 457.221 80.8964 457.221 84.9839V107.669L458.782 112.017H443.51L441.726 107.056ZM437.323 103.377C437.806 103.377 438.252 103.285 438.661 103.099C439.107 102.876 439.441 102.671 439.664 102.486C439.887 102.263 439.998 102.151 439.998 102.151V88.7741C437.732 88.7741 435.929 89.4058 434.592 90.6692C433.254 91.8954 432.585 93.8091 432.585 96.4102C432.585 101.055 434.164 103.377 437.323 103.377Z" fill="#34599F"/>
<path d="M418.033 107.391L417.531 108.004C417.197 108.375 416.602 108.858 415.748 109.453C414.93 110.01 413.927 110.586 412.738 111.181C411.586 111.738 410.025 112.203 408.056 112.574C406.124 112.983 404.043 113.187 401.813 113.187C394.27 113.187 388.492 110.976 384.479 106.554C380.503 102.133 378.515 96.2801 378.515 88.997C378.515 85.0582 379.128 81.4723 380.354 78.2395C381.58 75.0067 383.253 72.3313 385.371 70.2133C387.526 68.0581 390.034 66.4045 392.895 65.2526C395.794 64.0635 398.915 63.469 402.259 63.469C408.725 63.469 413.741 65.011 417.308 68.0952C418.089 68.8755 418.479 69.2657 418.479 69.2657L417.643 82.3642L409.728 82.4199L406.551 73.892C406.254 73.8177 405.845 73.7805 405.325 73.7805C401.943 73.7805 399.602 74.951 398.302 77.292C397.038 79.5958 396.407 83.609 396.407 89.3314C396.407 91.821 396.611 93.9577 397.02 95.7413C397.429 97.4877 397.893 98.8069 398.413 99.6987C398.933 100.553 399.621 101.222 400.476 101.705C401.367 102.188 402.092 102.467 402.649 102.541C403.207 102.616 403.894 102.653 404.712 102.653C406.57 102.653 408.465 102.43 410.397 101.984C412.366 101.538 413.983 100.813 415.246 99.8102L418.033 107.391Z" fill="#34599F"/>
<path d="M369.969 110.424H351.965V74.3618L348.621 72.2994V66.0011L360.605 63.0469H365.12L366.736 76.3126C368.259 67.2087 373.146 62.6568 381.395 62.6568C382.324 62.6568 383.29 62.824 384.293 63.1584L382.398 83.0012C381.618 82.2951 379.909 81.9421 377.27 81.9421C373.48 81.9421 371.046 82.9454 369.969 84.952V110.424Z" fill="#34599F"/>
<path d="M332.168 80.0152C332.168 75.2961 331.927 71.9518 331.444 69.9824C330.961 68.013 330.069 67.0283 328.768 67.0283C327.653 67.0283 326.743 67.2327 326.037 67.6414C325.331 68.013 324.811 68.6261 324.476 69.4808C324.142 70.2982 323.919 71.1529 323.807 72.0447C323.733 72.8994 323.696 73.9955 323.696 75.3333V80.0152H332.168ZM327.709 110.002C323.547 110.002 319.924 109.371 316.84 108.107C313.793 106.844 311.378 105.079 309.594 102.812C307.848 100.545 306.566 98.0001 305.748 95.176C304.931 92.3148 304.522 89.1377 304.522 85.6448C304.522 77.3212 306.64 71.0228 310.876 66.7496C315.112 62.4763 321.039 60.3397 328.657 60.3397C335.977 60.3397 341.216 62.0676 344.375 65.5234C347.533 68.942 349.113 74.46 349.113 82.0776V88.2645H323.64V89.3235C323.64 91.5159 323.863 93.3181 324.309 94.7301C324.792 96.1421 325.48 97.1826 326.371 97.8514C327.263 98.5203 328.174 98.9662 329.103 99.1891C330.032 99.4121 331.165 99.5236 332.503 99.5236C333.803 99.5236 335.197 99.3563 336.683 99.0219C338.206 98.6875 339.73 98.1673 341.253 97.4613C342.814 96.7552 344.115 95.9192 345.155 94.953L348.444 100.583C347.069 102.812 345.044 104.689 342.368 106.212C339.73 107.698 337.185 108.702 334.732 109.222C332.28 109.742 329.939 110.002 327.709 110.002Z" fill="#34599F"/>
<path d="M251.777 112.017H235L240.184 46.6919H266.325L271.23 68.5969L273.459 79.6888L275.577 68.6526L279.925 46.6919H303.223L308.017 112.017H290.682L287.84 73.6133L287.171 59.4559L278.643 105.495H264.095L253.839 59.4559L253.505 73.6133L251.777 112.017Z" fill="#34599F"/>
<path d="M494.609 168.607C496.244 168.607 497.489 167.938 498.344 166.6C499.235 165.225 499.681 163.349 499.681 160.971V143.358C499.681 136.112 497.972 132.489 494.553 132.489C492.956 132.489 491.711 133.139 490.819 134.439C489.927 135.74 489.481 137.579 489.481 139.957V158.072C489.481 165.095 491.191 168.607 494.609 168.607ZM494.163 175.295C485.654 175.295 479.43 173.363 475.491 169.499C471.552 165.634 469.583 159.466 469.583 150.994C469.583 142.596 471.571 136.279 475.547 132.043C479.523 127.769 485.988 125.633 494.944 125.633C503.676 125.633 509.974 127.677 513.839 131.764C517.74 135.814 519.691 141.964 519.691 150.213C519.691 158.76 517.629 165.077 513.504 169.164C509.417 173.252 502.97 175.295 494.163 175.295Z" fill="#34599F"/>
<path d="M459.773 175.295C454.756 175.295 451.245 173.79 449.238 170.781C447.269 167.771 446.284 162.68 446.284 155.508V136.557H442.438V128.81L449.015 126.748L454.701 113.761H464.51V126.748H473.652V136.557H464.343V157.292C464.343 160.265 464.771 162.234 465.625 163.2C466.48 164.166 467.799 164.649 469.583 164.649C470.363 164.649 471.069 164.557 471.701 164.371C472.332 164.185 472.853 163.925 473.261 163.59V171.171C472.704 171.728 471.979 172.286 471.088 172.843C470.196 173.363 468.709 173.902 466.629 174.459C464.585 175.017 462.3 175.295 459.773 175.295Z" fill="#34599F"/>
<path d="M428.884 169.164L428.327 169.777C427.955 170.223 427.379 170.743 426.599 171.338C425.855 171.933 424.982 172.527 423.979 173.122C423.013 173.716 421.824 174.218 420.412 174.627C419 175.072 417.551 175.295 416.064 175.295C406.031 175.295 401.015 170.335 401.015 160.413C401.015 158.481 401.368 156.716 402.074 155.118C402.78 153.483 403.69 152.108 404.805 150.994C405.92 149.879 407.258 148.894 408.818 148.039C410.379 147.148 411.94 146.46 413.5 145.977C415.098 145.457 416.77 145.03 418.517 144.695C420.263 144.361 421.824 144.138 423.199 144.026C424.574 143.915 425.893 143.859 427.156 143.859V142.856C427.156 140.589 426.543 138.991 425.317 138.062C424.128 137.133 422.195 136.669 419.52 136.669C417.216 136.669 414.819 136.948 412.33 137.505C409.84 138.025 407.889 138.657 406.477 139.4L402.91 131.82C405.437 130.185 408.725 128.754 412.776 127.528C416.826 126.265 420.951 125.633 425.149 125.633C428.865 125.633 431.931 126.004 434.346 126.748C436.762 127.454 438.712 128.68 440.199 130.426C441.722 132.136 442.8 134.328 443.432 137.003C444.063 139.642 444.379 143.004 444.379 147.092V169.777L445.94 174.125H430.668L428.884 169.164ZM424.481 165.486C424.964 165.486 425.41 165.393 425.818 165.207C426.264 164.984 426.599 164.779 426.822 164.594C427.045 164.371 427.156 164.259 427.156 164.259V150.882C424.889 150.882 423.087 151.514 421.749 152.777C420.412 154.003 419.743 155.917 419.743 158.518C419.743 163.163 421.322 165.486 424.481 165.486Z" fill="#34599F"/>
<path d="M392.437 174.125H374.434V138.062L371.089 136V129.702L383.073 126.748H387.588L389.204 140.013C390.728 130.909 395.614 126.357 403.863 126.357C404.792 126.357 405.759 126.525 406.762 126.859L404.867 146.702C404.086 145.996 402.377 145.643 399.739 145.643C395.949 145.643 393.515 146.646 392.437 148.653V174.125Z" fill="#34599F"/>
<path d="M356.588 169.164L356.03 169.777C355.659 170.223 355.083 170.743 354.303 171.338C353.559 171.933 352.686 172.527 351.683 173.122C350.717 173.716 349.528 174.218 348.116 174.627C346.704 175.072 345.254 175.295 343.768 175.295C333.735 175.295 328.719 170.335 328.719 160.413C328.719 158.481 329.072 156.716 329.778 155.118C330.484 153.483 331.394 152.108 332.509 150.994C333.624 149.879 334.961 148.894 336.522 148.039C338.083 147.148 339.643 146.46 341.204 145.977C342.802 145.457 344.474 145.03 346.22 144.695C347.967 144.361 349.528 144.138 350.902 144.026C352.277 143.915 353.596 143.859 354.86 143.859V142.856C354.86 140.589 354.247 138.991 353.021 138.062C351.831 137.133 349.899 136.669 347.224 136.669C344.92 136.669 342.523 136.948 340.034 137.505C337.544 138.025 335.593 138.657 334.181 139.4L330.614 131.82C333.141 130.185 336.429 128.754 340.479 127.528C344.53 126.265 348.654 125.633 352.853 125.633C356.569 125.633 359.635 126.004 362.05 126.748C364.465 127.454 366.416 128.68 367.903 130.426C369.426 132.136 370.504 134.328 371.135 137.003C371.767 139.642 372.083 143.004 372.083 147.092V169.777L373.644 174.125H358.371L356.588 169.164ZM352.184 165.486C352.668 165.486 353.113 165.393 353.522 165.207C353.968 164.984 354.303 164.779 354.525 164.594C354.748 164.371 354.86 164.259 354.86 164.259V150.882C352.593 150.882 350.791 151.514 349.453 152.777C348.116 154.003 347.447 155.917 347.447 158.518C347.447 163.163 349.026 165.486 352.184 165.486Z" fill="#34599F"/>
<path d="M313.479 163.734C316.117 163.734 318.05 162.991 319.276 161.504C320.502 160.018 321.115 158.253 321.115 156.209V152.307C321.115 149.892 320.335 148.183 318.774 147.18C317.214 146.139 315.449 145.619 313.479 145.619H309.132V163.734H313.479ZM320.335 126.055C320.335 123.825 319.722 122.283 318.496 121.429C317.269 120.537 315.504 120.091 313.2 120.091H309.132V136.199H313.646C315.802 136.199 317.455 135.363 318.607 133.691C319.759 131.982 320.335 129.901 320.335 127.448V126.055ZM317.269 175.16C314.371 175.16 310.618 175.086 306.01 174.937C301.403 174.788 298.095 174.696 296.089 174.658H290.738V109.333H300.381C302.722 109.333 305.397 109.259 308.407 109.11C311.417 108.925 313.591 108.832 314.928 108.832C319.276 108.832 322.936 109.185 325.909 109.891C328.919 110.597 331.278 111.656 332.987 113.068C334.697 114.48 335.904 116.115 336.61 117.973C337.354 119.831 337.725 122.042 337.725 124.606C337.725 128.544 336.815 131.926 334.994 134.75C333.173 137.574 330.535 139.339 327.079 140.045C335.849 140.825 340.233 145.972 340.233 155.484C340.233 158.346 339.806 160.947 338.951 163.288C338.097 165.592 336.778 167.654 334.994 169.475C333.248 171.258 330.869 172.652 327.86 173.655C324.85 174.658 321.32 175.16 317.269 175.16Z" fill="#34599F"/>
<path d="M17.3158 0.00102074C15.106 -0.0334202 12.9711 0.804884 11.3702 2.33562C9.84008 3.89085 8.98195 5.98947 8.98195 8.17627C8.98195 10.3631 9.84008 12.4617 11.3702 14.0169L67.9648 70.8781C68.7073 71.6304 69.593 72.2248 70.569 72.6259C71.545 73.027 72.5914 73.2266 73.6458 73.2127C75.7379 73.2127 77.9954 72.4816 79.5913 70.8781C81.1275 69.3261 81.9897 67.2262 81.9897 65.0375C81.9897 62.8487 81.1275 60.7489 79.5913 59.1968L22.9967 2.33562C22.2542 1.58332 21.3686 0.988908 20.3926 0.587816C19.4166 0.186724 18.3702 -0.012839 17.3158 0.00102074ZM197.684 0.00102074C196.63 -0.012839 195.583 0.186724 194.607 0.587816C193.631 0.988908 192.746 1.58332 192.003 2.33562L135.409 59.1968C133.873 60.7489 133.01 62.8487 133.01 65.0375C133.01 67.2262 133.873 69.3261 135.409 70.8781C137.005 72.4816 139.262 73.2127 141.354 73.2127C142.409 73.2266 143.455 73.027 144.431 72.6259C145.407 72.2248 146.293 71.6304 147.035 70.8781L203.63 14.0169C205.16 12.4617 206.018 10.3631 206.018 8.17627C206.018 5.98947 205.16 3.89085 203.63 2.33562C202.029 0.804884 199.894 -0.0334202 197.684 0.00102074ZM8.26923 57.3773C3.71288 57.3773 0 61.1077 0 65.6855V90.61C0 95.1878 3.71288 98.9182 8.26923 98.9182H16.5385V107.226C16.5385 107.966 33.0769 173.692 33.0769 173.692C35.5329 178.103 37.6002 182 41.3462 182H173.654C178.21 182 179.988 178.361 181.923 173.692C181.923 173.692 198.462 107.966 198.462 107.226V98.9182H206.731C211.287 98.9182 215 95.1878 215 90.61V65.6855C215 61.1077 211.287 57.3773 206.731 57.3773H172.877L151.691 78.6712C148.466 81.9114 144.1 83.8555 139.543 83.8555C134.995 83.8555 130.885 81.9197 127.652 78.6712C124.885 75.9323 123.144 72.3179 122.722 68.4383C122.3 64.5588 123.224 60.6519 125.337 57.3773H89.6715C91.7836 60.6528 92.7059 64.5603 92.2825 68.4398C91.8592 72.3194 90.1162 75.9333 87.3479 78.6712C84.1229 81.9114 80.0048 83.8555 75.4567 83.8555C70.8863 83.8009 66.5215 81.9381 63.3092 78.6712L42.1235 57.3773H8.26923ZM74.4231 98.9182C78.9794 98.9182 82.6923 102.649 82.6923 107.226V157.075C82.6923 161.653 78.9794 165.384 74.4231 165.384C69.8667 165.384 66.1538 161.653 66.1538 157.075V107.226C66.1538 102.649 69.8667 98.9182 74.4231 98.9182ZM107.5 98.9182C112.056 98.9182 115.769 102.649 115.769 107.226V157.075C115.769 161.653 112.056 165.384 107.5 165.384C102.944 165.384 99.2308 161.653 99.2308 157.075V107.226C99.2308 102.649 102.944 98.9182 107.5 98.9182ZM140.577 98.9182C145.133 98.9182 148.846 102.649 148.846 107.226V157.075C148.846 161.653 145.133 165.384 140.577 165.384C136.021 165.384 132.308 161.653 132.308 157.075V107.226C132.308 102.649 136.021 98.9182 140.577 98.9182Z" fill="#C43C24"/>
<rect x="38" y="94" width="135" height="80" fill="#C43C24"/>
<rect y="57" width="215" height="37" rx="9" fill="#C43C24"/>
<path d="M54.6794 183.856H34L40.3893 54.144H72.6107L78.6565 97.6396L81.4046 119.664L84.0153 97.7502L89.3741 54.144H118.092L124 183.856H102.634L99.1298 107.6L98.3054 79.4887L87.7939 170.907H69.8626L57.2214 79.4887L56.8092 107.6L54.6794 183.856Z" fill="white"/>
<path d="M150.189 162.916C153.227 162.916 155.453 161.415 156.865 158.412C158.277 155.409 158.983 151.843 158.983 147.714V139.832C158.983 134.952 158.084 131.499 156.287 129.472C154.49 127.37 152.457 126.319 150.189 126.319H145.182L145.182 162.916H150.189ZM158.084 86.795C158.084 82.2908 157.378 79.1754 155.966 77.4487C154.554 75.6471 152.521 74.7462 149.868 74.7462H145.182V107.289H150.382C152.864 107.289 154.768 105.6 156.095 102.222C157.421 98.7686 158.084 94.5647 158.084 89.6101V86.795ZM154.554 186C151.216 186 146.894 185.85 141.588 185.55C136.282 185.249 132.473 185.062 130.162 184.987H124L124 53.0134H135.105C137.801 53.0134 140.882 52.8633 144.348 52.563C147.814 52.1877 150.318 52 151.858 52C156.865 52 161.08 52.7132 164.503 54.1395C167.97 55.5658 170.687 57.7053 172.655 60.558C174.624 63.4106 176.015 66.7137 176.828 70.4672C177.684 74.2207 178.111 78.6874 178.111 83.8672C178.111 91.8246 177.063 98.656 174.966 104.361C172.869 110.067 169.831 113.632 165.851 115.059C175.95 116.635 181 127.032 181 146.25C181 152.031 180.508 157.286 179.524 162.015C178.539 166.669 177.02 170.836 174.966 174.514C172.955 178.118 170.216 180.933 166.75 182.96C163.284 184.987 159.218 186 154.554 186Z" fill="white"/>
</svg>
